<?xml version="1.0" encoding="UTF-8"?>
<svg id="Layer_1" xmlns="http://www.w3.org/2000/svg" version="1.1" xmlns:xlink="http://www.w3.org/1999/xlink" viewBox="0 0 1962 571.25">
  <!-- Generator: Adobe Illustrator 30.2.1, SVG Export Plug-In . SVG Version: 2.1.1 Build 1)  -->
  <defs>
    <style>
      .st0 {
        fill: #3273ea;
      }

      .st1 {
        fill: #fff;
      }

      .st2 {
        fill: url(#linear-gradient1);
      }

      .st3 {
        fill: #2f6fed;
      }

      .st4 {
        fill: url(#linear-gradient);
      }
    </style>
    <linearGradient id="linear-gradient" x1="230.87" y1="194.21" x2="227.97" y2="530.24" gradientUnits="userSpaceOnUse">
      <stop offset="0" stop-color="#1e40af" stop-opacity="0"/>
      <stop offset=".4" stop-color="#1e40af" stop-opacity=".9"/>
      <stop offset="1" stop-color="#1e40af"/>
    </linearGradient>
    <linearGradient id="linear-gradient1" x1="505.08" y1="469.69" x2="505.08" y2="200.79" gradientUnits="userSpaceOnUse">
      <stop offset="0" stop-color="#1e40af"/>
      <stop offset=".33" stop-color="#1e40af" stop-opacity=".95"/>
      <stop offset=".55" stop-color="#1e40af" stop-opacity=".9"/>
      <stop offset=".77" stop-color="#2555cb" stop-opacity=".95"/>
      <stop offset="1" stop-color="#2f6fed"/>
    </linearGradient>
  </defs>
  <g>
    <path class="st0" d="M210.32,271.17c61.42-11.2,53.84-85.27,10.84-92.14h-37.58s-3.61,301.34-3.61,301.34h157.54v54.2h-186.44c-14.09,0-29.63-18.16-29.63-36.13V153.74c1.62-22.17,15.18-30.12,37.58-29.63h75.15c103.34,14.45,107.67,198.36-23.84,203.42v-56.37Z"/>
    <path class="st4" d="M337.5,480.37h-157.54l3.61-301.34h-62.15v321.39c0,18.29,15.54,34.14,29.63,34.14h186.44s0-54.2,0-54.2Z"/>
    <path class="st3" d="M32.55,127.73l-2.89,411.18h57.09v-133.69l36.13,9.39c36.4,6.59,71.94,7.13,106.59,1.45,170.18-40.47,173.07-200.17,256.9-204.51,65.5-4.46,101.53,37.94,97.56,98.28-.72,64.32-131.52,110.56-170.54,2.89l-39.02,45.53c16.33,38.44,47.81,66.76,106.95,76.6,59.02,4.32,105.93-11.81,135.13-57.81,38.28-58.31,38.77-126.14,0-176.32-35.25-42.09-78.53-59.69-130.08-52.03-127.73,15.18-141.82,214.89-302.79,212.46-36.04,0-74.42-1.28-94.67-15.18v-214.62c.9-17.34,14.72-42,39.02-44.08h119.24c48.33,2.35,93.04,76.33,90.33,138.02l51.31-60.7c-25.29-76.83-73.56-123.33-150.31-132.24h-122.85c-44.8,2.53-83.28,54.83-83.1,95.39Z"/>
    <path class="st2" d="M479.1,212.38c27.52-15.25,52.94-16.45,89.88-4.36,63.94,26.04,101.3,133.78,21.47,198.81-63.46,52.95-185.79,32.9-216.08-48.56l39.02-45.53c27.52,89.35,154.24,81.56,170.54-2.89,5.06-67.21-42.64-106.59-104.84-97.48Z"/>
  </g>
  <g>
    <g>
      <path class="st1" d="M716.62,482.93v-58.92h20.17c4.59,0,8.36.84,11.33,2.51,2.97,1.67,5.17,3.92,6.6,6.74,1.44,2.82,2.16,5.99,2.16,9.49s-.72,6.68-2.16,9.53c-1.44,2.85-3.63,5.12-6.58,6.8-2.95,1.69-6.72,2.53-11.31,2.53h-14.28v-6.6h13.92c3.11,0,5.62-.53,7.51-1.6,1.9-1.07,3.28-2.53,4.13-4.39.86-1.86,1.29-3.95,1.29-6.27s-.43-4.4-1.29-6.23c-.86-1.83-2.24-3.28-4.15-4.33-1.91-1.05-4.44-1.58-7.57-1.58h-12.26v52.32h-7.51Z"/>
      <path class="st1" d="M785.62,483.88c-4.27,0-7.96-.95-11.05-2.85-3.1-1.9-5.48-4.55-7.16-7.95-1.67-3.4-2.51-7.37-2.51-11.9s.82-8.53,2.45-11.98c1.63-3.45,3.95-6.16,6.94-8.11s6.49-2.93,10.5-2.93c2.35,0,4.66.39,6.94,1.17,2.28.78,4.35,2.03,6.21,3.76,1.86,1.73,3.34,4,4.45,6.82,1.11,2.82,1.66,6.28,1.66,10.36v2.97h-34.33v-6.01h30.49l-3.32,2.21c0-2.9-.45-5.48-1.36-7.73-.91-2.25-2.26-4.02-4.05-5.3-1.79-1.28-4.02-1.92-6.68-1.92s-4.94.65-6.84,1.96c-1.9,1.3-3.35,3.01-4.35,5.1-1,2.1-1.5,4.34-1.5,6.74v3.99c0,3.27.57,6.04,1.7,8.33,1.13,2.28,2.72,4.01,4.77,5.18,2.04,1.17,4.41,1.76,7.1,1.76,1.74,0,3.32-.25,4.75-.75,1.42-.5,2.65-1.26,3.68-2.27s1.82-2.27,2.37-3.78l6.88,1.9c-.69,2.21-1.85,4.17-3.48,5.85-1.64,1.69-3.66,3-6.07,3.95-2.41.95-5.13,1.42-8.17,1.42Z"/>
      <path class="st1" d="M814.26,482.93v-44.21h6.88v6.8h.47c.82-2.24,2.27-4.04,4.37-5.4,2.1-1.36,4.46-2.04,7.1-2.04.53,0,1.15.01,1.88.04.73.03,1.3.05,1.72.08v7.16c-.21-.05-.74-.13-1.58-.24-.84-.1-1.74-.16-2.69-.16-2.11,0-4,.44-5.67,1.33-1.67.88-2.99,2.1-3.93,3.64-.95,1.54-1.42,3.32-1.42,5.32v27.68h-7.12Z"/>
      <path class="st1" d="M859.77,483.88c-3.03,0-5.73-.44-8.09-1.33s-4.3-2.19-5.83-3.93c-1.53-1.74-2.56-3.88-3.08-6.41l6.76-1.62c.63,2.43,1.83,4.21,3.58,5.34,1.75,1.13,3.95,1.7,6.58,1.7,3.08,0,5.54-.66,7.38-1.98,1.83-1.32,2.75-2.89,2.75-4.71,0-1.53-.53-2.8-1.6-3.82-1.07-1.01-2.7-1.77-4.88-2.27l-7.36-1.74c-4.01-.95-6.99-2.42-8.94-4.41-1.95-1.99-2.93-4.54-2.93-7.65,0-2.53.71-4.77,2.14-6.7,1.42-1.94,3.37-3.45,5.83-4.55,2.46-1.09,5.27-1.64,8.4-1.64s5.61.46,7.73,1.36c2.12.91,3.85,2.16,5.18,3.76,1.33,1.6,2.33,3.43,2.99,5.52l-6.45,1.66c-.61-1.58-1.62-3.02-3.03-4.31-1.41-1.29-3.54-1.94-6.39-1.94-2.64,0-4.83.61-6.58,1.82-1.75,1.21-2.63,2.74-2.63,4.59,0,1.64.59,2.95,1.78,3.94,1.19.99,3.07,1.79,5.65,2.39l6.68,1.58c4.01.95,6.97,2.42,8.9,4.41,1.92,1.99,2.89,4.5,2.89,7.53,0,2.58-.73,4.88-2.19,6.9-1.46,2.02-3.51,3.61-6.13,4.77-2.62,1.16-5.66,1.74-9.12,1.74Z"/>
      <path class="st1" d="M905.49,483.88c-4.01,0-7.52-.95-10.54-2.85-3.02-1.9-5.37-4.56-7.06-7.99-1.69-3.43-2.53-7.41-2.53-11.94s.84-8.64,2.53-12.08c1.69-3.44,4.04-6.11,7.06-8.01,3.02-1.9,6.53-2.85,10.54-2.85s7.57.95,10.6,2.85c3.03,1.9,5.39,4.57,7.08,8.01,1.69,3.44,2.53,7.47,2.53,12.08s-.84,8.52-2.53,11.94c-1.69,3.43-4.05,6.09-7.08,7.99-3.03,1.9-6.56,2.85-10.6,2.85ZM905.49,477.51c2.98,0,5.43-.76,7.36-2.29,1.92-1.53,3.35-3.54,4.27-6.03.92-2.49,1.38-5.19,1.38-8.09s-.46-5.65-1.38-8.17c-.92-2.52-2.35-4.55-4.27-6.09-1.92-1.54-4.38-2.31-7.36-2.31s-5.38.77-7.28,2.31-3.31,3.57-4.23,6.07c-.92,2.5-1.38,5.23-1.38,8.19s.46,5.6,1.38,8.09c.92,2.49,2.33,4.5,4.23,6.03,1.9,1.53,4.32,2.29,7.28,2.29Z"/>
      <path class="st1" d="M943.18,456.43v26.5h-7.12v-44.21h6.84l.04,10.72h-.99c1.34-4.09,3.26-6.99,5.75-8.7,2.49-1.71,5.41-2.57,8.76-2.57,2.98,0,5.59.61,7.83,1.84,2.24,1.23,3.99,3.07,5.24,5.54,1.25,2.46,1.88,5.57,1.88,9.31v28.08h-7.12v-27.48c0-3.4-.89-6.06-2.67-7.99s-4.21-2.89-7.3-2.89c-2.11,0-4.01.46-5.69,1.38-1.69.92-3.02,2.27-3.99,4.03-.98,1.77-1.46,3.92-1.46,6.45Z"/>
      <path class="st1" d="M996.29,483.95c-2.79,0-5.33-.53-7.61-1.58-2.28-1.05-4.09-2.6-5.44-4.63-1.35-2.03-2.02-4.49-2.02-7.4,0-2.53.5-4.59,1.5-6.17,1-1.58,2.34-2.83,4.01-3.74,1.67-.91,3.53-1.59,5.56-2.04s4.07-.8,6.13-1.07c2.64-.34,4.79-.61,6.45-.79s2.89-.5,3.7-.95c.8-.45,1.21-1.21,1.21-2.29v-.24c0-1.84-.34-3.41-1.03-4.69-.69-1.28-1.71-2.26-3.08-2.95-1.37-.68-3.08-1.03-5.14-1.03s-3.92.33-5.42.99c-1.5.66-2.72,1.48-3.66,2.47-.94.99-1.64,2-2.12,3.03l-6.84-2.25c1.13-2.69,2.66-4.79,4.59-6.31,1.92-1.52,4.05-2.59,6.37-3.22,2.32-.63,4.61-.95,6.88-.95,1.48,0,3.16.18,5.04.53,1.88.36,3.7,1.06,5.46,2.12,1.75,1.06,3.2,2.62,4.35,4.69,1.15,2.07,1.72,4.83,1.72,8.29v29.15h-7v-6.01h-.47c-.5,1.03-1.31,2.09-2.41,3.18-1.11,1.09-2.54,2.01-4.31,2.75-1.77.74-3.9,1.11-6.41,1.11ZM997.51,477.67c2.64,0,4.86-.51,6.68-1.54,1.82-1.03,3.2-2.37,4.15-4.01s1.42-3.37,1.42-5.16v-6.13c-.29.34-.92.65-1.9.93-.98.28-2.09.52-3.34.73-1.25.21-2.47.39-3.64.53-1.17.14-2.1.26-2.79.34-1.71.21-3.32.57-4.8,1.09-1.49.51-2.68,1.27-3.58,2.25-.9.99-1.34,2.33-1.34,4.01,0,1.53.4,2.81,1.19,3.84s1.87,1.81,3.24,2.33c1.37.53,2.94.79,4.71.79Z"/>
      <path class="st1" d="M1036.5,424v58.92h-7.12v-58.92h7.12Z"/>
      <path class="st1" d="M1072.65,482.93v-58.92h7.51v52.28h27.29v6.64h-34.8Z"/>
      <path class="st1" d="M1121.17,431.48c-1.34,0-2.5-.46-3.48-1.38-.98-.92-1.46-2.03-1.46-3.32s.49-2.43,1.46-3.34c.97-.91,2.13-1.36,3.48-1.36s2.54.45,3.52,1.36c.98.91,1.46,2.02,1.46,3.34s-.49,2.4-1.46,3.32c-.98.92-2.15,1.38-3.52,1.38ZM1117.57,482.93v-44.21h7.12v44.21h-7.12Z"/>
      <path class="st1" d="M1157.75,438.71v6.09h-26.02v-6.09h26.02ZM1140.43,482.93v-50.11c0-2.56.6-4.69,1.8-6.41,1.2-1.71,2.76-3,4.69-3.88,1.92-.87,3.96-1.31,6.09-1.31,1.69,0,3.08.14,4.19.42,1.11.28,1.92.53,2.45.77l-1.98,6.09c-.37-.13-.85-.28-1.44-.43-.59-.16-1.39-.24-2.39-.24-2.19,0-3.78.56-4.79,1.68-1,1.12-1.5,2.75-1.5,4.88v48.52h-7.12Z"/>
      <path class="st1" d="M1183.38,483.88c-4.27,0-7.96-.95-11.05-2.85-3.1-1.9-5.48-4.55-7.16-7.95-1.67-3.4-2.51-7.37-2.51-11.9s.82-8.53,2.45-11.98c1.63-3.45,3.95-6.16,6.94-8.11s6.49-2.93,10.5-2.93c2.35,0,4.66.39,6.94,1.17,2.28.78,4.35,2.03,6.21,3.76,1.86,1.73,3.34,4,4.45,6.82,1.11,2.82,1.66,6.28,1.66,10.36v2.97h-34.33v-6.01h30.49l-3.32,2.21c0-2.9-.45-5.48-1.36-7.73-.91-2.25-2.26-4.02-4.05-5.3-1.79-1.28-4.02-1.92-6.68-1.92s-4.94.65-6.84,1.96-3.35,3.01-4.35,5.1-1.5,4.34-1.5,6.74v3.99c0,3.27.57,6.04,1.7,8.33,1.13,2.28,2.72,4.01,4.77,5.18,2.04,1.17,4.41,1.76,7.1,1.76,1.74,0,3.32-.25,4.75-.75,1.42-.5,2.65-1.26,3.68-2.27s1.82-2.27,2.37-3.78l6.88,1.9c-.69,2.21-1.85,4.17-3.48,5.85s-3.66,3-6.07,3.95c-2.41.95-5.13,1.42-8.17,1.42Z"/>
      <path class="st1" d="M1259.54,483.72c-5.04,0-9.52-1.22-13.46-3.66-3.94-2.44-7.05-5.92-9.31-10.44-2.27-4.52-3.4-9.89-3.4-16.12s1.13-11.63,3.4-16.15c2.27-4.52,5.37-8.01,9.31-10.46,3.94-2.45,8.43-3.68,13.46-3.68s9.52,1.23,13.45,3.68c3.93,2.45,7.02,5.94,9.27,10.46,2.25,4.52,3.38,9.91,3.38,16.15s-1.13,11.59-3.38,16.12c-2.25,4.52-5.35,8-9.27,10.44-3.93,2.44-8.41,3.66-13.45,3.66ZM1259.54,476.76c3.51,0,6.68-.89,9.51-2.67,2.83-1.78,5.09-4.4,6.76-7.87,1.67-3.47,2.51-7.71,2.51-12.71s-.84-9.33-2.51-12.79c-1.67-3.47-3.93-6.09-6.76-7.87-2.83-1.78-6-2.67-9.51-2.67s-6.72.9-9.57,2.69c-2.85,1.79-5.11,4.42-6.78,7.89-1.67,3.47-2.51,7.72-2.51,12.75s.84,9.24,2.51,12.69c1.67,3.45,3.93,6.08,6.78,7.87,2.85,1.79,6.04,2.69,9.57,2.69Z"/>
      <path class="st1" d="M1296.72,499.46v-60.74h6.88v7.08h.79c.5-.79,1.2-1.79,2.1-2.99.9-1.2,2.19-2.27,3.88-3.22s3.97-1.42,6.84-1.42c3.69,0,6.94.92,9.75,2.77,2.81,1.85,5.01,4.48,6.6,7.89,1.59,3.41,2.39,7.45,2.39,12.12s-.79,8.75-2.37,12.18c-1.58,3.43-3.78,6.08-6.58,7.95-2.81,1.87-6.06,2.81-9.75,2.81-2.79,0-5.05-.48-6.76-1.44-1.71-.96-3.03-2.06-3.96-3.28-.92-1.23-1.63-2.25-2.14-3.07h-.55v23.37h-7.12ZM1316.18,477.51c2.77,0,5.08-.74,6.94-2.23,1.86-1.49,3.26-3.49,4.19-6.01s1.4-5.32,1.4-8.4-.46-5.82-1.38-8.29c-.92-2.46-2.31-4.42-4.17-5.87-1.86-1.45-4.19-2.17-6.98-2.17s-5,.69-6.84,2.06-3.24,3.28-4.17,5.71c-.94,2.44-1.4,5.29-1.4,8.56s.47,6.16,1.42,8.66c.95,2.5,2.35,4.46,4.21,5.87s4.12,2.12,6.78,2.12Z"/>
      <path class="st1" d="M1364.9,483.88c-4.27,0-7.96-.95-11.05-2.85-3.1-1.9-5.48-4.55-7.16-7.95-1.67-3.4-2.51-7.37-2.51-11.9s.82-8.53,2.45-11.98c1.63-3.45,3.95-6.16,6.94-8.11s6.49-2.93,10.5-2.93c2.35,0,4.66.39,6.94,1.17,2.28.78,4.35,2.03,6.21,3.76,1.86,1.73,3.34,4,4.45,6.82,1.11,2.82,1.66,6.28,1.66,10.36v2.97h-34.33v-6.01h30.49l-3.32,2.21c0-2.9-.45-5.48-1.36-7.73-.91-2.25-2.26-4.02-4.05-5.3-1.79-1.28-4.02-1.92-6.68-1.92s-4.94.65-6.84,1.96-3.35,3.01-4.35,5.1-1.5,4.34-1.5,6.74v3.99c0,3.27.57,6.04,1.7,8.33,1.13,2.28,2.72,4.01,4.77,5.18,2.04,1.17,4.41,1.76,7.1,1.76,1.74,0,3.32-.25,4.75-.75,1.42-.5,2.65-1.26,3.68-2.27s1.82-2.27,2.37-3.78l6.88,1.9c-.69,2.21-1.85,4.17-3.48,5.85s-3.66,3-6.07,3.95c-2.41.95-5.13,1.42-8.17,1.42Z"/>
      <path class="st1" d="M1393.53,482.93v-44.21h6.88v6.8h.47c.82-2.24,2.27-4.04,4.37-5.4,2.1-1.36,4.46-2.04,7.1-2.04.53,0,1.15.01,1.88.04.72.03,1.3.05,1.72.08v7.16c-.21-.05-.74-.13-1.58-.24-.84-.1-1.74-.16-2.69-.16-2.11,0-4,.44-5.67,1.33-1.67.88-2.99,2.1-3.94,3.64-.95,1.54-1.42,3.32-1.42,5.32v27.68h-7.12Z"/>
      <path class="st1" d="M1436.4,483.95c-2.79,0-5.33-.53-7.61-1.58-2.28-1.05-4.09-2.6-5.44-4.63-1.34-2.03-2.02-4.49-2.02-7.4,0-2.53.5-4.59,1.5-6.17s2.34-2.83,4.01-3.74c1.67-.91,3.53-1.59,5.56-2.04s4.07-.8,6.13-1.07c2.64-.34,4.79-.61,6.45-.79s2.89-.5,3.7-.95c.8-.45,1.21-1.21,1.21-2.29v-.24c0-1.84-.34-3.41-1.03-4.69-.69-1.28-1.71-2.26-3.08-2.95-1.37-.68-3.08-1.03-5.14-1.03s-3.92.33-5.42.99c-1.5.66-2.72,1.48-3.66,2.47-.94.99-1.64,2-2.12,3.03l-6.84-2.25c1.13-2.69,2.66-4.79,4.59-6.31,1.92-1.52,4.05-2.59,6.37-3.22,2.32-.63,4.61-.95,6.88-.95,1.48,0,3.16.18,5.04.53,1.88.36,3.7,1.06,5.46,2.12,1.75,1.06,3.2,2.62,4.35,4.69,1.15,2.07,1.72,4.83,1.72,8.29v29.15h-7v-6.01h-.47c-.5,1.03-1.31,2.09-2.41,3.18-1.11,1.09-2.54,2.01-4.31,2.75-1.77.74-3.9,1.11-6.41,1.11ZM1437.62,477.67c2.64,0,4.86-.51,6.68-1.54,1.82-1.03,3.2-2.37,4.15-4.01s1.42-3.37,1.42-5.16v-6.13c-.29.34-.92.65-1.9.93-.98.28-2.09.52-3.34.73-1.25.21-2.47.39-3.64.53-1.17.14-2.1.26-2.79.34-1.71.21-3.32.57-4.8,1.09-1.49.51-2.68,1.27-3.58,2.25-.9.99-1.34,2.33-1.34,4.01,0,1.53.4,2.81,1.19,3.84s1.87,1.81,3.24,2.33c1.37.53,2.94.79,4.71.79Z"/>
      <path class="st1" d="M1486.9,438.71v6.09h-22.86v-6.09h22.86ZM1470.68,428.19h7.12v43.26c0,1.98.4,3.42,1.21,4.33.8.91,2.14,1.36,4.01,1.36.45,0,1.02-.05,1.72-.16s1.34-.21,1.92-.32l1.46,6.01c-.74.26-1.58.46-2.51.59s-1.87.2-2.79.2c-3.82,0-6.8-1.01-8.94-3.03s-3.2-4.83-3.2-8.44v-43.82Z"/>
      <path class="st1" d="M1499.59,431.48c-1.34,0-2.5-.46-3.48-1.38-.98-.92-1.46-2.03-1.46-3.32s.49-2.43,1.46-3.34c.97-.91,2.13-1.36,3.48-1.36s2.54.45,3.52,1.36c.98.91,1.46,2.02,1.46,3.34s-.49,2.4-1.46,3.32c-.98.92-2.15,1.38-3.52,1.38ZM1495.99,482.93v-44.21h7.12v44.21h-7.12Z"/>
      <path class="st1" d="M1522.73,456.43v26.5h-7.12v-44.21h6.84l.04,10.72h-.99c1.34-4.09,3.26-6.99,5.75-8.7,2.49-1.71,5.41-2.57,8.76-2.57,2.98,0,5.59.61,7.83,1.84,2.24,1.23,3.99,3.07,5.24,5.54,1.25,2.46,1.88,5.57,1.88,9.31v28.08h-7.12v-27.48c0-3.4-.89-6.06-2.67-7.99-1.78-1.92-4.21-2.89-7.3-2.89-2.11,0-4.01.46-5.69,1.38-1.69.92-3.02,2.27-3.99,4.03-.98,1.77-1.46,3.92-1.46,6.45Z"/>
      <path class="st1" d="M1581.37,500.41c-3.27,0-6.1-.42-8.48-1.25-2.39-.83-4.37-1.93-5.95-3.3-1.58-1.37-2.83-2.86-3.76-4.47l5.77-3.72c.63.84,1.42,1.78,2.35,2.81.94,1.03,2.2,1.9,3.8,2.63,1.59.72,3.68,1.09,6.27,1.09,3.53,0,6.44-.84,8.72-2.53,2.28-1.69,3.42-4.35,3.42-7.99v-8.86h-.67c-.5.84-1.21,1.85-2.12,3.01-.91,1.16-2.21,2.18-3.92,3.06-1.7.88-3.97,1.33-6.82,1.33-3.53,0-6.71-.84-9.53-2.51-2.82-1.67-5.05-4.12-6.68-7.34s-2.45-7.13-2.45-11.75.8-8.52,2.41-11.88c1.61-3.36,3.83-5.96,6.66-7.81,2.83-1.84,6.08-2.77,9.75-2.77,2.85,0,5.12.47,6.82,1.4,1.7.94,3.01,2.01,3.93,3.22.92,1.21,1.63,2.21,2.14,3.01h.67v-7.08h6.92v45.36c0,3.8-.86,6.9-2.57,9.31-1.71,2.41-4.03,4.19-6.94,5.32-2.91,1.13-6.16,1.7-9.75,1.7ZM1581.17,475.89c2.69,0,4.96-.61,6.8-1.84,1.85-1.23,3.24-2.99,4.19-5.3.95-2.31,1.42-5.07,1.42-8.28s-.47-5.9-1.4-8.29c-.94-2.39-2.33-4.26-4.17-5.62-1.85-1.36-4.13-2.04-6.84-2.04s-5.13.72-7,2.16c-1.87,1.44-3.28,3.36-4.21,5.75-.94,2.4-1.4,5.08-1.4,8.03s.47,5.71,1.42,8.03c.95,2.32,2.36,4.13,4.23,5.44,1.87,1.31,4.19,1.96,6.96,1.96Z"/>
      <path class="st1" d="M1655.64,483.95c-4.24,0-7.93-.69-11.05-2.06-3.12-1.37-5.57-3.29-7.34-5.75-1.77-2.46-2.77-5.34-3.01-8.64h7.71c.21,2.21.96,4.04,2.25,5.48,1.29,1.44,2.95,2.51,4.96,3.2,2.02.7,4.17,1.05,6.47,1.05,2.66,0,5.06-.44,7.18-1.31s3.8-2.1,5.04-3.68,1.86-3.41,1.86-5.5c0-1.9-.53-3.44-1.6-4.63-1.07-1.19-2.49-2.16-4.25-2.93s-3.7-1.44-5.81-2.02l-7.12-2.02c-4.75-1.34-8.44-3.27-11.07-5.77-2.64-2.5-3.96-5.71-3.96-9.61,0-3.32.9-6.23,2.69-8.72,1.79-2.49,4.22-4.42,7.28-5.79s6.49-2.06,10.28-2.06,7.3.69,10.28,2.06c2.98,1.37,5.33,3.24,7.06,5.6s2.64,5.03,2.75,8.01h-7.36c-.34-2.87-1.71-5.09-4.11-6.66-2.4-1.57-5.35-2.35-8.86-2.35-2.53,0-4.75.42-6.66,1.25-1.91.83-3.39,1.96-4.45,3.4-1.05,1.44-1.58,3.08-1.58,4.92,0,2.06.64,3.71,1.92,4.96,1.28,1.25,2.79,2.23,4.55,2.93,1.75.7,3.34,1.25,4.77,1.64l5.89,1.62c1.58.42,3.33,1,5.24,1.74,1.91.74,3.74,1.72,5.48,2.95,1.74,1.23,3.17,2.78,4.29,4.67,1.12,1.88,1.68,4.2,1.68,6.94,0,3.22-.84,6.12-2.51,8.7-1.67,2.58-4.11,4.63-7.3,6.13-3.19,1.5-7.05,2.25-11.59,2.25Z"/>
      <path class="st1" d="M1687.16,498.94l1.82-6.17.75.2c1.45.37,2.77.47,3.95.3,1.19-.17,2.25-.76,3.2-1.76s1.78-2.56,2.49-4.67l1.27-3.68-16.89-44.45h7.79l9.41,26.22c1,2.74,1.85,5.46,2.53,8.15.69,2.69,1.41,5.3,2.17,7.83h-2.61c.76-2.53,1.5-5.15,2.2-7.85.7-2.7,1.54-5.41,2.51-8.13l9.49-26.22h7.75l-19.42,50.82c-.9,2.35-1.97,4.28-3.22,5.79-1.25,1.52-2.71,2.64-4.37,3.36-1.66.73-3.53,1.09-5.62,1.09-1.27,0-2.36-.09-3.28-.28-.92-.19-1.57-.37-1.94-.55Z"/>
      <path class="st1" d="M1748.42,483.88c-3.03,0-5.73-.44-8.09-1.33s-4.3-2.19-5.83-3.93-2.56-3.88-3.08-6.41l6.76-1.62c.63,2.43,1.83,4.21,3.58,5.34,1.75,1.13,3.95,1.7,6.58,1.7,3.08,0,5.54-.66,7.38-1.98,1.83-1.32,2.75-2.89,2.75-4.71,0-1.53-.53-2.8-1.6-3.82-1.07-1.01-2.7-1.77-4.88-2.27l-7.36-1.74c-4.01-.95-6.99-2.42-8.94-4.41s-2.93-4.54-2.93-7.65c0-2.53.71-4.77,2.14-6.7s3.37-3.45,5.83-4.55,5.27-1.64,8.4-1.64,5.61.46,7.73,1.36c2.12.91,3.85,2.16,5.18,3.76,1.33,1.6,2.33,3.43,2.99,5.52l-6.45,1.66c-.61-1.58-1.62-3.02-3.03-4.31-1.41-1.29-3.54-1.94-6.39-1.94-2.64,0-4.83.61-6.58,1.82-1.75,1.21-2.63,2.74-2.63,4.59,0,1.64.59,2.95,1.78,3.94,1.19.99,3.07,1.79,5.66,2.39l6.68,1.58c4.01.95,6.97,2.42,8.9,4.41,1.92,1.99,2.89,4.5,2.89,7.53,0,2.58-.73,4.88-2.2,6.9-1.46,2.02-3.51,3.61-6.13,4.77-2.62,1.16-5.66,1.74-9.12,1.74Z"/>
      <path class="st1" d="M1793.54,438.71v6.09h-22.86v-6.09h22.86ZM1777.32,428.19h7.12v43.26c0,1.98.4,3.42,1.21,4.33.8.91,2.14,1.36,4.01,1.36.45,0,1.02-.05,1.72-.16s1.34-.21,1.92-.32l1.46,6.01c-.74.26-1.58.46-2.51.59s-1.87.2-2.79.2c-3.82,0-6.8-1.01-8.94-3.03s-3.2-4.83-3.2-8.44v-43.82Z"/>
      <path class="st1" d="M1820.43,483.88c-4.27,0-7.96-.95-11.05-2.85-3.1-1.9-5.48-4.55-7.16-7.95-1.67-3.4-2.51-7.37-2.51-11.9s.82-8.53,2.45-11.98c1.63-3.45,3.95-6.16,6.94-8.11s6.49-2.93,10.5-2.93c2.35,0,4.66.39,6.94,1.17,2.28.78,4.35,2.03,6.21,3.76,1.86,1.73,3.34,4,4.45,6.82,1.11,2.82,1.66,6.28,1.66,10.36v2.97h-34.33v-6.01h30.49l-3.32,2.21c0-2.9-.45-5.48-1.36-7.73-.91-2.25-2.26-4.02-4.05-5.3-1.79-1.28-4.02-1.92-6.68-1.92s-4.94.65-6.84,1.96-3.35,3.01-4.35,5.1-1.5,4.34-1.5,6.74v3.99c0,3.27.57,6.04,1.7,8.33,1.13,2.28,2.72,4.01,4.77,5.18,2.04,1.17,4.41,1.76,7.1,1.76,1.74,0,3.32-.25,4.75-.75,1.42-.5,2.65-1.26,3.68-2.27s1.82-2.27,2.37-3.78l6.88,1.9c-.69,2.21-1.85,4.17-3.48,5.85s-3.66,3-6.07,3.95c-2.41.95-5.13,1.42-8.17,1.42Z"/>
      <path class="st1" d="M1849.06,482.93v-44.21h6.92l.04,9.89h-.55c.61-2.4,1.56-4.38,2.87-5.95,1.31-1.57,2.83-2.75,4.59-3.54,1.75-.79,3.58-1.19,5.48-1.19,3.22,0,5.82.99,7.81,2.97,1.99,1.98,3.28,4.58,3.86,7.79h-.95c.53-2.21,1.49-4.13,2.89-5.73,1.4-1.61,3.09-2.85,5.08-3.72,1.99-.87,4.16-1.31,6.5-1.31,2.56,0,4.89.55,7,1.66,2.11,1.11,3.79,2.78,5.04,5.02,1.25,2.24,1.88,5.08,1.88,8.5v29.82h-7.12v-29.62c0-3.19-.9-5.47-2.69-6.84-1.79-1.37-3.88-2.06-6.25-2.06-1.98,0-3.68.42-5.12,1.25-1.44.83-2.54,1.97-3.32,3.42-.78,1.45-1.17,3.11-1.17,4.98v28.87h-7.12v-30.33c0-2.45-.82-4.43-2.45-5.93s-3.7-2.25-6.21-2.25c-1.71,0-3.33.4-4.84,1.21-1.52.8-2.74,2-3.66,3.58-.92,1.58-1.38,3.55-1.38,5.89v27.84h-7.12Z"/>
    </g>
    <g>
      <path class="st1" d="M713.72,361.13V109.36h98.17c19.15,0,35.43,3.63,48.83,10.9,13.4,7.27,23.63,17.29,30.67,30.08,7.04,12.79,10.56,27.46,10.56,44.02s-3.58,31.34-10.73,44.02c-7.16,12.67-17.52,22.59-31.09,29.74-13.58,7.16-30.05,10.73-49.42,10.73h-63.2v-41.57h54.92c10.59,0,19.29-1.83,26.11-5.49,6.81-3.66,11.88-8.7,15.21-15.12,3.32-6.42,4.98-13.86,4.98-22.3s-1.66-15.85-4.98-22.22c-3.32-6.36-8.42-11.32-15.29-14.87-6.87-3.55-15.6-5.32-26.19-5.32h-37v209.19h-51.54Z"/>
      <path class="st1" d="M987.46,109.36v251.77h-50.69V109.36h50.69Z"/>
      <path class="st1" d="M1055.89,147.55c-7.66,0-14.19-2.53-19.6-7.6-5.41-5.07-8.11-11.21-8.11-18.42s2.7-13.35,8.11-18.42,11.94-7.6,19.6-7.6,14.22,2.53,19.69,7.6c5.46,5.07,8.2,11.21,8.2,18.42s-2.73,13.35-8.2,18.42c-5.46,5.07-12.03,7.6-19.69,7.6ZM1030.54,361.13v-188.91h50.69v188.91h-50.69Z"/>
      <path class="st1" d="M1229.42,172.22v38.69h-123.35v-38.69h123.35ZM1139.36,361.13v-203.44c0-13.4,2.67-24.56,8.03-33.46,5.35-8.9,12.64-15.57,21.88-20.02,9.24-4.45,19.71-6.67,31.43-6.67,8,0,15.29.65,21.88,1.94,6.59,1.3,11.41,2.39,14.45,3.29l-9.12,38.19c-2.14-.56-4.65-1.12-7.52-1.69-2.87-.56-6-.85-9.38-.85-7.66,0-13.09,1.83-16.31,5.49-3.21,3.66-4.82,8.82-4.82,15.46v201.75h-50.52Z"/>
      <path class="st1" d="M1339.93,364.85c-19.26,0-35.88-3.94-49.85-11.83-13.97-7.88-24.7-19.09-32.19-33.63-7.49-14.53-11.24-31.77-11.24-51.71s3.72-36.55,11.15-51.2c7.43-14.64,17.97-26.08,31.6-34.3,13.63-8.22,29.62-12.33,47.99-12.33,12.39,0,23.94,1.97,34.64,5.91,10.7,3.94,20.11,9.88,28.22,17.83,8.11,7.94,14.45,17.88,19.01,29.82,4.56,11.94,6.84,26.02,6.84,42.24v14.19h-158.67v-31.77h133.83l-23.66,8.45c0-9.8-1.49-18.33-4.48-25.6-2.99-7.27-7.43-12.9-13.35-16.9-5.91-4-13.21-6-21.88-6s-16.25,2.03-22.39,6.08c-6.14,4.06-10.79,9.55-13.94,16.48-3.16,6.93-4.73,14.84-4.73,23.74v22.47c0,10.93,1.83,20.11,5.49,27.54,3.66,7.43,8.79,13.01,15.38,16.73,6.59,3.72,14.28,5.58,23.06,5.58,5.97,0,11.38-.85,16.22-2.54,4.84-1.69,8.98-4.2,12.42-7.52,3.43-3.32,6.05-7.41,7.86-12.25l45.96,8.62c-3.04,10.37-8.34,19.46-15.88,27.29-7.55,7.83-16.98,13.88-28.3,18.17-11.32,4.28-24.36,6.42-39.12,6.42Z"/>
      <path class="st1" d="M1572.44,364.51c-22.19,0-42.16-5.07-59.9-15.21-17.74-10.14-31.77-24.84-42.07-44.1-10.31-19.26-15.46-42.52-15.46-69.79s5.15-50.72,15.46-70.04c10.31-19.32,24.33-34.05,42.07-44.19s37.71-15.21,59.9-15.21,42.3,5.07,59.99,15.21c17.68,10.14,31.68,24.87,41.99,44.19,10.31,19.32,15.46,42.67,15.46,70.04s-5.15,50.52-15.46,69.79c-10.31,19.26-24.31,33.96-41.99,44.1-17.69,10.14-37.68,15.21-59.99,15.21ZM1572.44,318.72c13.07,0,24.47-3.18,34.22-9.55,9.74-6.36,17.32-15.77,22.73-28.22,5.41-12.45,8.11-27.63,8.11-45.54s-2.7-33.43-8.11-45.88c-5.41-12.45-12.98-21.85-22.73-28.22-9.75-6.36-21.15-9.55-34.22-9.55s-24.33,3.21-34.13,9.63c-9.8,6.42-17.4,15.86-22.81,28.3-5.41,12.45-8.11,27.68-8.11,45.71s2.7,33.06,8.11,45.45c5.41,12.39,13.01,21.8,22.81,28.22,9.8,6.42,21.18,9.63,34.13,9.63Z"/>
      <path class="st1" d="M1820.82,364.85c-20.17,0-37.71-3.1-52.63-9.29-14.93-6.19-26.56-15.38-34.89-27.54-8.34-12.17-12.73-27.15-13.18-44.95h50.18c.68,8.45,3.21,15.52,7.6,21.21,4.39,5.69,10.25,9.94,17.57,12.76,7.32,2.82,15.6,4.22,24.84,4.22s17.26-1.32,24.08-3.97c6.81-2.65,12.14-6.39,15.97-11.24,3.83-4.84,5.74-10.48,5.74-16.9,0-5.75-1.72-10.56-5.15-14.45-3.44-3.89-8.36-7.24-14.79-10.05-6.42-2.81-14.25-5.29-23.49-7.43l-27.71-6.93c-21.29-5.18-37.96-13.32-50.02-24.42-12.05-11.09-18.08-25.77-18.08-44.02,0-15.21,4.08-28.5,12.25-39.88,8.17-11.38,19.37-20.22,33.62-26.53,14.25-6.31,30.5-9.46,48.75-9.46s34.81,3.18,48.66,9.55c13.86,6.37,24.67,15.21,32.44,26.53,7.77,11.32,11.77,24.36,12,39.12h-49.85c-.9-10.14-5.21-17.97-12.93-23.49-7.72-5.52-18-8.28-30.84-8.28-8.68,0-16.11,1.24-22.3,3.72-6.2,2.48-10.9,5.91-14.11,10.31-3.21,4.39-4.82,9.41-4.82,15.04,0,6.2,1.86,11.35,5.58,15.46,3.72,4.11,8.67,7.43,14.87,9.97,6.19,2.53,12.78,4.65,19.77,6.34l22.81,5.58c10.59,2.37,20.45,5.58,29.57,9.63,9.12,4.06,17.12,9.04,23.99,14.95,6.87,5.91,12.19,12.93,15.97,21.04,3.77,8.11,5.66,17.46,5.66,28.05,0,15.21-3.83,28.47-11.49,39.79-7.66,11.32-18.76,20.08-33.29,26.28-14.53,6.19-31.99,9.29-52.38,9.29Z"/>
    </g>
  </g>
</svg>